<svg width="14" height="16" xmlns="http://www.w3.org/2000/svg" xmlns:xlink="http://www.w3.org/1999/xlink" xmlns:svgjs="http://svgjs.com/svgjs" viewBox="0.277 0 13.445 16" fill="#fff"><svg xmlns="http://www.w3.org/2000/svg" width="14" height="16" viewBox="0 0 13.445 16"><path paint-order="stroke fill markers" fill-rule="evenodd" d="M11.241 8.455c-.007-1.31.586-2.3 1.786-3.03-.671-.96-1.686-1.489-3.025-1.592-1.268-.1-2.654.74-3.162.74-.535 0-1.764-.704-2.729-.704C2.118 3.9 0 5.459 0 8.627c0 .935.171 1.902.514 2.9.458 1.311 2.108 4.526 3.83 4.472.9-.021 1.536-.64 2.707-.64 1.136 0 1.726.64 2.73.64 1.735-.025 3.228-2.947 3.664-4.261-2.329-1.097-2.204-3.215-2.204-3.283zM9.22 2.59c.976-1.158.886-2.211.858-2.59-.861.05-1.858.586-2.426 1.247-.625.707-.993 1.582-.914 2.568.932.071 1.782-.407 2.482-1.225z"/></svg></svg>