<?xml version="1.0"?>
<svg xmlns="http://www.w3.org/2000/svg" xmlns:xlink="http://www.w3.org/1999/xlink" xmlns:svgjs="http://svgjs.com/svgjs" version="1.1" width="12" height="12" x="0" y="0" viewBox="0 0 482.656 482.656" style="enable-background:new 0 0 512 512" xml:space="preserve" class=""><g>
<g xmlns="http://www.w3.org/2000/svg">
	<g>
		<path d="M241.326,0C108.057,0,0.002,108.043,0.002,241.328c0,133.289,108.055,241.328,241.324,241.328    c133.289,0,241.328-108.039,241.328-241.328C482.654,108.043,374.615,0,241.326,0z M291.439,374.141    c0,12.846-10.405,23.256-23.25,23.256h-53.69c-12.844,0-23.25-10.41-23.25-23.256V251.105c0-12.844,10.406-23.254,23.25-23.254    h53.69c12.845,0,23.25,10.41,23.25,23.254V374.141z M241.326,187.23c-32.617,0-59.066-26.449-59.066-59.098    c0-32.602,26.449-59.066,59.066-59.066c32.651,0,59.102,26.465,59.102,59.066C300.428,160.781,273.979,187.23,241.326,187.23z" fill="#ffffff" data-original="#000000" style="" class=""/>
	</g>
</g>
<g xmlns="http://www.w3.org/2000/svg">
</g>
<g xmlns="http://www.w3.org/2000/svg">
</g>
<g xmlns="http://www.w3.org/2000/svg">
</g>
<g xmlns="http://www.w3.org/2000/svg">
</g>
<g xmlns="http://www.w3.org/2000/svg">
</g>
<g xmlns="http://www.w3.org/2000/svg">
</g>
<g xmlns="http://www.w3.org/2000/svg">
</g>
<g xmlns="http://www.w3.org/2000/svg">
</g>
<g xmlns="http://www.w3.org/2000/svg">
</g>
<g xmlns="http://www.w3.org/2000/svg">
</g>
<g xmlns="http://www.w3.org/2000/svg">
</g>
<g xmlns="http://www.w3.org/2000/svg">
</g>
<g xmlns="http://www.w3.org/2000/svg">
</g>
<g xmlns="http://www.w3.org/2000/svg">
</g>
<g xmlns="http://www.w3.org/2000/svg">
</g>
</g></svg>
