<svg width="22" height="16" xmlns="http://www.w3.org/2000/svg" xmlns:xlink="http://www.w3.org/1999/xlink" xmlns:svgjs="http://svgjs.com/svgjs" viewBox="0.333 0 21.333 16" fill="#fff"><svg xmlns="http://www.w3.org/2000/svg" width="22" height="16" viewBox="0 0 21.333 16"><path paint-order="stroke fill markers" fill-rule="evenodd" d="M20.929 5.283a.25.25 0 0 1 .404.196V14a2 2 0 0 1-2 2H2a2 2 0 0 1-2-2V5.483a.25.25 0 0 1 .404-.196c.933.725 2.17 1.646 6.42 4.734.88.641 2.363 1.991 3.843 1.983 1.487.013 3-1.367 3.845-1.983 4.25-3.088 5.484-4.013 6.417-4.738zm-10.262 5.384c.966.016 2.358-1.217 3.058-1.725 5.529-4.013 5.95-4.363 7.225-5.363a.997.997 0 0 0 .383-.787V2a2 2 0 0 0-2-2H2a2 2 0 0 0-2 2v.792c0 .308.142.595.383.787 1.275.996 1.696 1.35 7.225 5.363.7.508 2.092 1.741 3.059 1.725z"/></svg></svg>